<svg xmlns="http://www.w3.org/2000/svg" viewBox="0 0 32 32">
  <defs>
    <linearGradient id="bg" x1="0%" y1="0%" x2="100%" y2="100%">
      <stop offset="0%" style="stop-color:#0f0f18"/>
      <stop offset="100%" style="stop-color:#050508"/>
    </linearGradient>
    <linearGradient id="fg" x1="0%" y1="0%" x2="100%" y2="100%">
      <stop offset="0%" style="stop-color:#c084fc"/>
      <stop offset="100%" style="stop-color:#8b5cf6"/>
    </linearGradient>
  </defs>
  <rect width="32" height="32" rx="6" fill="url(#bg)"/>
  <g transform="translate(16, 16)">
    <path d="M-5 -6 L-5 6 L2 6 Q8 6 8 0 Q8 -6 2 -6 L-5 -6 M-2 -3 L2 -3 Q5 -3 5 0 Q5 3 2 3 L-2 3 Z" fill="url(#fg)"/>
    <path d="M-6 -6 Q-8 -10 -6 -11 Q-4 -10 -5 -6" fill="url(#fg)"/>
    <path d="M3 -6 Q5 -10 7 -11 Q9 -10 6 -6" fill="url(#fg)"/>
    <circle cx="0" cy="0" r="1.5" fill="#8b5cf6"/>
  </g>
</svg>
